<svg xmlns="http://www.w3.org/2000/svg" viewBox="0 0 512 512">
  <rect width="512" height="512" fill="#2c3e50"/>
  <rect x="96" y="64" width="320" height="384" rx="32" fill="#34495e"/>
  <rect x="128" y="96" width="256" height="96" rx="12" fill="#1a252f"/>
  <text x="368" y="168" font-family="Arial, sans-serif" font-size="64" font-weight="700" fill="#2ecc71" text-anchor="end">0</text>
  <g fill="#ecf0f1">
    <rect x="128" y="224" width="56" height="56" rx="10"/>
    <rect x="200" y="224" width="56" height="56" rx="10"/>
    <rect x="272" y="224" width="56" height="56" rx="10"/>
    <rect x="344" y="224" width="40" height="56" rx="10" fill="#e67e22"/>
    <rect x="128" y="296" width="56" height="56" rx="10"/>
    <rect x="200" y="296" width="56" height="56" rx="10"/>
    <rect x="272" y="296" width="56" height="56" rx="10"/>
    <rect x="344" y="296" width="40" height="56" rx="10" fill="#e67e22"/>
    <rect x="128" y="368" width="56" height="56" rx="10"/>
    <rect x="200" y="368" width="56" height="56" rx="10"/>
    <rect x="272" y="368" width="56" height="56" rx="10"/>
    <rect x="344" y="368" width="40" height="56" rx="10" fill="#e67e22"/>
  </g>
</svg>
