<svg xmlns="http://www.w3.org/2000/svg" viewBox="0 0 512 512">
  <rect width="512" height="512" fill="#ea580c"/>
  <ellipse cx="256" cy="320" rx="160" ry="40" fill="#7c2d12"/>
  <path d="M 96 320 Q 96 440 256 440 Q 416 440 416 320 Z" fill="#9a3412"/>
  <ellipse cx="256" cy="320" rx="160" ry="32" fill="#c2410c"/>
  <rect x="80" y="300" width="40" height="20" rx="6" fill="#7c2d12"/>
  <rect x="392" y="300" width="40" height="20" rx="6" fill="#7c2d12"/>
  <g fill="#fed7aa">
    <circle cx="220" cy="312" r="14"/>
    <circle cx="270" cy="316" r="12"/>
    <circle cx="300" cy="310" r="10"/>
    <circle cx="200" cy="318" r="8"/>
  </g>
  <g stroke="#ffffff" stroke-width="6" stroke-linecap="round" fill="none" opacity="0.6">
    <path d="M 200 240 Q 200 200 220 180"/>
    <path d="M 260 250 Q 260 200 280 170"/>
    <path d="M 320 245 Q 320 210 340 185"/>
  </g>
</svg>
